<svg xmlns="http://www.w3.org/2000/svg" width="25.898" height="25.898" viewBox="0 0 25.898 25.898">
  <path d="m12.947 0a12.949 12.949 0 1 0 12.951 12.949 12.955 12.955 0 0 0-12.951-12.949m0 1.82a11.129 11.129 0 1 1-11.129 11.129 11.134 11.134 0 0 1 11.129-11.128m0 1.172a0.5855 0.5855 0 1 0 0 1.171 8.758 8.758 0 0 1 1.648 0.155 0.586 0.586 0 1 0 0.218-1.151 9.953 9.953 0 0 0-1.866-0.175m3.507 0.682a0.586 0.586 0 0 0-0.212 1.125 8.8 8.8 0 0 1 5.492 8.147 0.5855 0.5855 0 1 0 1.171 0 9.965 9.965 0 0 0-6.223-9.232 0.563 0.563 0 0 0-0.23-0.043zm-3.507 5.176a4.1 4.1 0 1 0 4.1 4.1 4.1 4.1 0 0 0-4.1-4.1m0 1.172a2.929 2.929 0 1 1-2.929 2.929 2.931 2.931 0 0 1 2.929-2.929m0 1.172a1.757 1.757 0 1 0 1.757 1.757 1.758 1.758 0 0 0-1.757-1.757m0 1.172a0.585 0.585 0 1 1-0.585 0.585 0.586 0.586 0 0 1 0.585-0.585" fill-rule="evenodd"/>
</svg>
